# xmcd
#
# Track frame offsets:
#	150
#	20483
#	40307
#	64380
#	84662
#	101322
#	130760
#	149972
#	166103
#	193127
#
# Disc length: 2927 seconds
#
# Revision: 4
# Processed by: cddbd v1.5.2PL0 Copyright (c) Steve Scherf et al.
# Submitted via: EZCDAudioConverter 8.0.2.1
#
DISCID=8e0b6d0a
DTITLE=Phương Thanh - Còn Yêu Nhau
DYEAR=1998
DGENRE=Pop
TTITLE0=Hãy đến với tôi
TTITLE1=Tình yêu trở lại
TTITLE2=Tình băng giá
TTITLE3=Còn Yêu Nhau 
TTITLE4=Tình duyên đầu năm
TTITLE5=Biệt ly
TTITLE6=Làm quen
TTITLE7=Yêu thương nồng thắm
TTITLE8=Hãy tìm nhau
TTITLE9=Chia tay tình đầu
EXTD=
EXTT0=
EXTT1=
EXTT2=
EXTT3=
EXTT4=
EXTT5=
EXTT6=
EXTT7=
EXTT8=
EXTT9=
PLAYORDER=
